<?xml version="1.0" encoding="utf-8"?>
<!-- Generator: Adobe Illustrator 25.3.1, SVG Export Plug-In . SVG Version: 6.00 Build 0)  -->
<svg version="1.1" id="Layer_1" xmlns="http://www.w3.org/2000/svg" xmlns:xlink="http://www.w3.org/1999/xlink" x="0px" y="0px"
	 viewBox="0 0 496 496" style="enable-background:new 0 0 496 496;" xml:space="preserve">
<path d="M423.4,72.5c-96.7-96.7-254.2-96.7-350.9,0s-96.7,254.2,0,350.9c96.8,96.8,254.2,96.7,350.9,0
	C520.2,326.6,520.2,169.2,423.4,72.5z M241.2,463.6c-48-1.5-95.6-18.9-134.1-52.1l140.9-141l56.8,56.8
	C270.9,365.6,248.8,413,241.2,463.6L241.2,463.6z M327.9,350.4l61,61c-33.3,28.7-73.2,45.6-114.4,50.6
	C281.9,420.7,300.3,382.2,327.9,350.4z M350.5,327.8c31.8-27.6,70.3-46,111.6-53.3c-5.1,41.2-21.9,81.1-50.6,114.4L350.5,327.8z
	 M463.7,241.1c-50.6,7.6-98,29.7-136.3,63.5l-56.8-56.7L411.5,107C444.8,145.5,462.2,193.1,463.7,241.1L463.7,241.1z M148.7,171.2
	c-32.6,28.4-72.6,47.2-115.4,54.1c4.4-42.6,21.6-84,51.2-118.3L148.7,171.2z M107.1,84.3c34.3-29.6,75.7-46.7,118.3-51.2
	c-6.9,42.8-25.7,82.8-54.1,115.4C171.3,148.5,107.1,84.3,107.1,84.3z M257.7,32.4c47,2.1,93.4,19.4,131.2,52L248,225.3l-54.1-54.1
	C228.4,132.3,250.6,84,257.7,32.4L257.7,32.4z M32.5,257.6c51.6-7.2,99.9-29.4,138.8-63.8l54.1,54.1l-141,140.9
	C51.9,351,34.6,304.7,32.5,257.6z"/>
</svg>
