<?xml version="1.0" encoding="utf-8"?>
<!-- Generator: Adobe Illustrator 25.3.1, SVG Export Plug-In . SVG Version: 6.00 Build 0)  -->
<svg version="1.1" id="Layer_1" xmlns="http://www.w3.org/2000/svg" xmlns:xlink="http://www.w3.org/1999/xlink" x="0px" y="0px"
	 viewBox="0 0 496 496" style="enable-background:new 0 0 496 496;" xml:space="preserve">
<path d="M248,0C111.2,0,0,111.2,0,248s111.2,248,248,248s248-111.2,248-248S384.8,0,248,0z M103.5,408.1
	c16.7-17.4,30.6-37.2,41.3-59.1L118,336c-9.1,18.8-21.8,35.1-36,50c-85.6-102.8-45.3-221.5,0-276c14.2,14.9,26.8,31.2,36,49.8
	l26.8-13.1c-10.6-21.8-24.5-41.5-41.2-58.9c79.1-71.4,203.1-77.6,289-0.1c-16.7,17.4-30.6,37.1-41.2,59l26.8,13
	c9.1-18.7,21.7-35,36-50c78.1,93.7,54.6,210.4,0.1,275.9c-14.3-14.9-26.9-31.2-36-49.9l-26.8,13.1c10.7,21.9,24.5,41.6,41.3,58.9
	C302.8,489.2,178.5,475.9,103.5,408.1L103.5,408.1z M156.7,319.5l-28.3-9.2c12.2-37.5,14-81.5-0.1-124.7l28.3-9.2
	C172.9,226.4,170.6,276.8,156.7,319.5z M367.7,310.3l-28.3,9.2c-16.3-50-14-100.5-0.1-143.1l28.3,9.2
	C355.4,223.2,353.7,267.2,367.7,310.3z"/>
</svg>
