<?xml version="1.0" encoding="utf-8"?>
<!-- Generator: Adobe Illustrator 25.3.1, SVG Export Plug-In . SVG Version: 6.00 Build 0)  -->
<svg version="1.1" id="Layer_1" xmlns="http://www.w3.org/2000/svg" xmlns:xlink="http://www.w3.org/1999/xlink" x="0px" y="0px"
	 viewBox="0 0 574.1 512" style="enable-background:new 0 0 574.1 512;" xml:space="preserve">
<path d="M570.6,331.5l-67-67c-4.7-4.7-12.3-4.7-17,0l-67,67c-7.6,7.6-2.2,20.5,8.5,20.5h44.3c-19.7,65.3-92.5,104.3-161.2,110.9V216
	h60c6.6,0,12-5.4,12-12v-24c0-6.6-5.4-12-12-12h-60v-11.7c32.5-10.2,56-40.5,56-76.3c0-44.2-35.8-80-80-80s-80,35.8-80,80
	c0,35.8,23.5,66.1,56,76.3V168h-60c-6.6,0-12,5.4-12,12v24c0,6.6,5.4,12,12,12h60v246.9c-68.8-6.6-141.6-45.7-161.2-110.9h44.3
	c10.7,0,16-12.9,8.5-20.5l-67-67c-4.7-4.7-12.3-4.7-17,0l-67,67C-4,339.1,1.3,352,12,352h40.3c20.4,99.6,128,160,234.7,160
	c113.1,0,215.3-65.3,234.7-160h40.3C572.8,352,578.1,339.1,570.6,331.5z M287.1,48c17.6,0,32,14.4,32,32s-14.4,32-32,32
	s-32-14.4-32-32S269.4,48,287.1,48z"/>
</svg>
