<?xml version="1.0" encoding="utf-8"?>
<!-- Generator: Adobe Illustrator 25.3.1, SVG Export Plug-In . SVG Version: 6.00 Build 0)  -->
<svg version="1.1" id="Layer_1" xmlns="http://www.w3.org/2000/svg" xmlns:xlink="http://www.w3.org/1999/xlink" x="0px" y="0px"
	 viewBox="0 0 640 512" style="enable-background:new 0 0 640 512;" xml:space="preserve">
<path d="M484.8,379.4l74.2-62.8c28.4-24,19.8-69.8-15.3-82L488,215.4V88c0-13.3-10.7-24-24-24h-48V24c0-13.3-10.7-24-24-24H248
	c-13.3,0-24,10.7-24,24v40h-48c-13.3,0-24,10.7-24,24v127.4l-55.7,19.3c-35.1,12.2-43.7,58-15.3,82l74.2,62.8
	C131.8,430.8,84.6,464,12,464c-6.6,0-12,5.4-12,12v24c0,6.6,5.4,12,12,12c61.7,0,114.3-17,157.2-66.5c6.4,37.7,39.3,66.5,78.8,66.5
	h144c39.5,0,72.4-28.8,78.8-66.5c43.1,49.8,96,66.5,157.2,66.5c6.6,0,12-5.4,12-12v-24c0-6.6-5.4-12-12-12
	C556,464,508.5,431.3,484.8,379.4L484.8,379.4z M264,40h112v24H264V40z M200,112h240v86.7l-104.3-36.1c-10.2-3.5-21.2-3.5-31.4,0
	L200,198.7V112z M424,432c0,17.7-14.3,32-32,32H248c-17.7,0-32-14.3-32-32v-64l-104-88l208-72l208,72l-104,88V432z"/>
</svg>
