<?xml version="1.0" encoding="utf-8"?>
<!-- Generator: Adobe Illustrator 25.3.1, SVG Export Plug-In . SVG Version: 6.00 Build 0)  -->
<svg version="1.1" id="Layer_1" xmlns:serif="http://www.serif.com/"
	 xmlns="http://www.w3.org/2000/svg" xmlns:xlink="http://www.w3.org/1999/xlink" x="0px" y="0px" viewBox="0 0 69.1 71.1"
	 style="enable-background:new 0 0 69.1 71.1;" xml:space="preserve">
<style type="text/css">
	.st0{fill-rule:evenodd;clip-rule:evenodd;}
</style>
<path class="st0" d="M0,37.9h69.1c-0.3,4.7-1.5,9.2-3.5,13.3h-62C1.5,47.1,0.3,42.6,0,37.9z M69.1,33.2H0c0.3-4.7,1.5-9.2,3.5-13.3
	h62C67.5,24,68.8,28.5,69.1,33.2z M6.3,55.8h56.5c-6.3,9-16.6,14.9-28.2,15.3C22.8,70.8,12.5,64.8,6.3,55.8z M62.8,15.3H6.3
	C12.5,6.3,22.8,0.3,34.5,0C46.2,0.3,56.5,6.3,62.8,15.3z"/>
</svg>
