<?xml version="1.0" encoding="utf-8"?>
<!-- Generator: Adobe Illustrator 25.3.1, SVG Export Plug-In . SVG Version: 6.00 Build 0)  -->
<svg version="1.1" id="Layer_1" xmlns:serif="http://www.serif.com/"
	 xmlns="http://www.w3.org/2000/svg" xmlns:xlink="http://www.w3.org/1999/xlink" x="0px" y="0px" viewBox="0 0 512 480"
	 style="enable-background:new 0 0 512 480;" xml:space="preserve">
<path d="M496,64h-64l-7.2-14.3C420,39.9,407.1,32,396.2,32h-69.6L299.3,4.7c-2.9-3-7-4.7-11.2-4.7c-8.8-0.1-16.1,7-16.1,15.9
	c0,0,0,0.1,0,0.1v176H160c-18.8,0-37.3,5.6-52.9,16H80c-26.5,0-48-21.5-48-48c0-8.8-7.2-16-16-16s-16,7.2-16,16
	c0.1,43.1,34.4,78.4,77.5,79.7C68.7,254.3,64.1,271,64,288v160c0,17.7,14.3,32,32,32h64c17.7,0,32-14.3,32-32v-96h96v96
	c0,17.7,14.3,32,32,32h64c17.7,0,32-14.3,32-32V208h32c35.3,0,64-28.7,64-64V80C512,71.2,504.8,64,496,64z M384,448h-64V320H160v128
	H96V288c0-35.3,28.7-64,64-64h118.1L384,250.5V448z M480,144c0,17.7-14.3,32-32,32h-64v41.5l-80-20V54.7l9.3,9.3h82.9l16,32H480V144
	z M384,96c0,8.8-7.2,16-16,16s-16-7.2-16-16s7.2-16,16-16S384,87.2,384,96z"/>
</svg>
