<?xml version="1.0" encoding="utf-8"?>
<!-- Generator: Adobe Illustrator 25.3.1, SVG Export Plug-In . SVG Version: 6.00 Build 0)  -->
<svg version="1.1" id="Capa_1" xmlns="http://www.w3.org/2000/svg" xmlns:xlink="http://www.w3.org/1999/xlink" x="0px" y="0px"
	 viewBox="0 0 512 512" style="enable-background:new 0 0 512 512;" xml:space="preserve">
<g>
	<path d="M497,339.6H393.4L380.7,309h54.9c8.3,0,15-6.7,15-15V232c0-8.3-6.7-15-15-15h-91.1c7.7-11.1,12.2-24.6,12.2-39.1V95
		c0-8.3-6.7-15-15-15h-14c-1-38.6-32.7-69.7-71.7-69.7S185.3,41.3,184.3,80h-14c-8.3,0-15,6.7-15,15v83c0,14.5,4.5,28,12.2,39.1H76
		c-8.3,0-15,6.7-15,15V294c0,8.3,6.7,15,15,15h57.9l-12.7,30.6H15c-8.3,0-15,6.7-15,15v59.6c0,8.3,6.7,15,15,15h69.2l-21.4,51.9
		c-1.9,4.6-1.4,9.9,1.4,14.1s7.5,6.7,12.5,6.7h65.1c6.1,0,11.6-3.7,13.9-9.3L231.5,309h51.6L359,492.5c2.3,5.6,7.8,9.3,13.9,9.3H438
		c5,0,9.7-2.5,12.5-6.7c2.8-4.2,3.3-9.4,1.4-14.1l-21.4-51.9H497c8.3,0,15-6.7,15-15v-59.6C512,346.3,505.3,339.6,497,339.6
		L497,339.6z M256,40.2c22.4,0,40.7,17.7,41.6,39.7h-83.2C215.3,57.9,233.6,40.2,256,40.2L256,40.2z M185.3,177.9v-68h141.3v68
		c0,21.5-17.6,39.1-39.2,39.1h-63C202.9,217,185.3,199.5,185.3,177.9z M91,247h329.6V279H91L91,247z M30.1,399.2v-29.6h78.8
		l-12.2,29.6H30.1z M131.7,471.8H99.1L166.4,309H199L131.7,471.8z M383,471.8L315.7,309h32.5l67.3,162.8H383z M481.9,399.2H418
		l-12.2-29.6h76.1L481.9,399.2L481.9,399.2z"/>
</g>
</svg>
