<?xml version="1.0" encoding="utf-8"?>
<!-- Generator: Adobe Illustrator 25.3.1, SVG Export Plug-In . SVG Version: 6.00 Build 0)  -->
<svg version="1.1" id="Capa_1" xmlns="http://www.w3.org/2000/svg" xmlns:xlink="http://www.w3.org/1999/xlink" x="0px" y="0px"
	 viewBox="0 0 520 678.4" style="enable-background:new 0 0 520 678.4;" xml:space="preserve">
<g>
	<path d="M501,516.2H397.4l-12.7-30.6h54.9c8.3,0,15-6.7,15-15v-61.9c0-8.3-6.7-15-15-15h-91.1c7.7-11.1,12.2-24.6,12.2-39.1v-83
		c0-8.3-6.7-15-15-15h-14c-1-38.6-32.7-69.7-71.7-69.7s-70.7,31.1-71.7,69.7h-14c-8.3,0-15,6.7-15,15v83c0,14.5,4.5,28,12.2,39.1H80
		c-8.3,0-15,6.7-15,15v61.9c0,8.3,6.7,15,15,15h57.9l-12.7,30.6H19c-8.3,0-15,6.7-15,15v59.6c0,8.3,6.7,15,15,15h69.2l-21.4,51.9
		c-1.9,4.6-1.4,9.9,1.4,14.1s7.5,6.7,12.5,6.7h65.1c6.1,0,11.6-3.7,13.9-9.3l75.9-183.5h51.6L363,669.1c2.3,5.6,7.8,9.3,13.9,9.3
		H442c5,0,9.7-2.5,12.5-6.7c2.8-4.2,3.3-9.4,1.4-14.1l-21.4-51.9H501c8.3,0,15-6.7,15-15v-59.6C516,522.9,509.3,516.2,501,516.2
		L501,516.2z M260,216.8c22.4,0,40.7,17.7,41.6,39.7h-83.2C219.3,234.5,237.6,216.8,260,216.8L260,216.8z M189.3,354.6v-68h141.3v68
		c0,21.5-17.6,39.1-39.2,39.1h-63C206.9,393.6,189.3,376.1,189.3,354.6z M95,423.6h329.6v31.9H95L95,423.6z M34.1,575.8v-29.6h78.8
		l-12.2,29.6H34.1z M135.7,648.4h-32.5l67.3-162.8H203L135.7,648.4z M386.9,648.4l-67.3-162.8h32.5l67.3,162.8H386.9z M485.9,575.8
		H422l-12.2-29.6h76.1L485.9,575.8L485.9,575.8z"/>
</g>
<path d="M519.8,192.4c-0.7-4.6-3.1-8.6-6.9-11.3L270.2,3.4c-6.1-4.5-14.3-4.5-20.4,0L7.1,181.1c-7.7,5.6-9.4,16.5-3.7,24.2
	s16.5,9.4,24.2,3.7L260,38.8L492.5,209c3,2.2,6.5,3.3,10.2,3.3c5.5,0,10.7-2.6,14-7.1C519.4,201.5,520.5,196.9,519.8,192.4z"/>
</svg>
