<?xml version="1.0" encoding="utf-8"?>
<!-- Generator: Adobe Illustrator 25.3.1, SVG Export Plug-In . SVG Version: 6.00 Build 0)  -->
<svg version="1.1" id="Capa_1" xmlns="http://www.w3.org/2000/svg" xmlns:xlink="http://www.w3.org/1999/xlink" x="0px" y="0px"
	 viewBox="0 0 512 512" style="enable-background:new 0 0 512 512;" xml:space="preserve">
<g>
	<g>
		<path d="M467,422h-37.9c-6,0-11.4-3.6-13.8-9.1l-33.1-77.3C365.6,297,327.7,272,285.7,272H270V152h15c13.7,0,20.2-16.9,10.1-26.1
			l-135-122c-5.7-5.2-14.4-5.2-20.1,0L5,125.9C-5.2,135.1,1.3,152,15,152h15c0,3.3,0,326.7,0,330H15c-8.3,0-15,6.7-15,15
			s6.7,15,15,15h30c8.3,0,15-6.7,15-15v-75h30v75c0,8.3,6.7,15,15,15s15-6.7,15-15v-15h60v15c0,8.3,6.7,15,15,15s15-6.7,15-15v-75
			h30v75c0,8.3,6.7,15,15,15h30c8.3,0,15-6.7,15-15s-6.7-15-15-15h-15c0-5.8,0-115.1,0-120h20.9c6,0,11.4,3.6,13.8,9.1l40.9,95.5
			c11.8,27.6,38.9,45.5,68.9,45.5H467c24.8,0,45-20.2,45-45C512,442.1,491.9,422,467,422z M90,392H60v-30h30C90,362,90,392,90,392z
			 M180,452h-60v-30h60V452z M180,392h-60v-30h60V392z M240,392h-30v-30h30V392z M240,332H60V152h180V332z M54,122l96-86.8l96,86.8
			H54z M467,482h-52.4c-18,0-34.3-10.7-41.4-27.3l-40.9-95.5c-7.1-16.6-23.3-27.3-41.4-27.3H270v-30h15.7c30,0,57.1,17.8,68.9,45.5
			l33.1,77.3c7.1,16.6,23.3,27.3,41.4,27.3H467c8.3,0,15,6.7,15,15C482,475.3,475.3,482,467,482z"/>
	</g>
</g>
<g>
	<g>
		<path d="M150,182c-33.1,0-60,26.9-60,60c0,33.1,26.9,60,60,60c33.1,0,60-26.9,60-60C210,208.9,183.1,182,150,182z M150,272
			c-16.5,0-30-13.5-30-30s13.5-30,30-30c16.5,0,30,13.5,30,30S166.5,272,150,272z"/>
	</g>
</g>
</svg>
