<?xml version="1.0" encoding="utf-8"?>
<!-- Generator: Adobe Illustrator 25.3.1, SVG Export Plug-In . SVG Version: 6.00 Build 0)  -->
<svg version="1.1" id="Layer_1" xmlns:serif="http://www.serif.com/"
	 xmlns="http://www.w3.org/2000/svg" xmlns:xlink="http://www.w3.org/1999/xlink" x="0px" y="0px" viewBox="0 0 624 512"
	 style="enable-background:new 0 0 624 512;" xml:space="preserve">
<path d="M312,0h-16c-4.4,0-8,3.6-8,8v496c0,4.4,3.6,8,8,8h16c4.4,0,8-3.6,8-8V8C320,3.6,316.4,0,312,0z M112,160
	c44.2,0,80-35.8,80-80S156.2,0,112,0S32,35.8,32,80S67.8,160,112,160z M112,32c26.5,0,48,21.5,48,48s-21.5,48-48,48s-48-21.5-48-48
	S85.5,32,112,32z M144,176H80c-44.2,0-80,35.8-80,80v101.3C0,372,11.9,384,26.7,384H40v96c0,17.7,14.3,32,32,32h80
	c17.7,0,32-14.3,32-32v-96h13.3c14.7,0,26.7-11.9,26.7-26.7V256C224,211.8,188.2,176,144,176z M192,352h-40v128H72V352H32v-96
	c0-26.5,21.5-48,48-48h64c26.5,0,48,21.5,48,48V352z M496,160c44.2,0,80-35.8,80-80S540.2,0,496,0s-80,35.8-80,80S451.8,160,496,160
	z M496,32c26.5,0,48,21.5,48,48s-21.5,48-48,48s-48-21.5-48-48S469.5,32,496,32z M622.1,359l-44.9-121.4
	C567.1,201.3,533.7,176,496,176s-71.1,25.3-81.2,61.6L369.9,359c-3.5,9.4-2.2,20,3.6,28.3c5.8,8.3,15.2,13.2,25.3,13.2H424v79.6
	c0,17.6,14.3,31.9,31.9,31.9H536c17.6,0,31.9-14.3,31.9-31.9v-79.6h25.2c10.1,0,19.5-4.9,25.3-13.2C624.2,379,625.6,368.4,622.1,359
	L622.1,359z M536,368.5l0.1,111.5h-80.2l0.1-111.5h-56l45.3-121c6.7-23.8,27.4-39.5,50.8-39.5s44.1,15.7,50.8,39.5l45.3,121H536z"/>
</svg>
