<?xml version="1.0" encoding="utf-8"?>
<!-- Generator: Adobe Illustrator 25.3.1, SVG Export Plug-In . SVG Version: 6.00 Build 0)  -->
<svg version="1.1"
	 id="Layer_1" xmlns:cc="http://creativecommons.org/ns#" xmlns:dc="http://purl.org/dc/elements/1.1/" xmlns:inkscape="http://www.inkscape.org/namespaces/inkscape" xmlns:rdf="http://www.w3.org/1999/02/22-rdf-syntax-ns#" xmlns:sodipodi="http://sodipodi.sourceforge.net/DTD/sodipodi-0.dtd" xmlns:svg="http://www.w3.org/2000/svg"
	 xmlns="http://www.w3.org/2000/svg" xmlns:xlink="http://www.w3.org/1999/xlink" x="0px" y="0px" viewBox="0 0 74 86"
	 style="enable-background:new 0 0 74 86;" xml:space="preserve">
<g transform="translate(0,-952.36218)">
	<path d="M35,952.4c4.4,0,8,3.6,8,8c0,4.4-3.6,8-8,8s-8-3.6-8-8C27,955.9,30.6,952.4,35,952.4z M2.4,965.4l18.9,1c1,0,3.3,1.3,5,2
		c2,2,6,3.9,8.9,3.9c3,0,5.9-1,7.9-2.9h14.9l14.9,3.9c2,2.9,1,5.9-2,5.9L59,976.2l-12.9,1l5,16.7c1,3.9-1,7.9-5,11.8l7.9,12.7
		c0,3.9-4,4.9-6.9,2l-9.9-14.7l-6,1l9.9,15.7c0,2.9-4,3.9-7,2l-13.9-19.7c-1-2,0-4.9,3-5.9l8.9-2l-5-18.7c-3-1-6-3.3-8.9-4.9
		l-16.9-2C-0.6,969.3-0.6,966.4,2.4,965.4L2.4,965.4z M72,1020.1c0.1,0.9-0.6,1.9-1.5,2.1l-7.1,2.1c0.3,0.6,0.6,1.3,0.6,2
		c0,2.2-1.8,4-4,4c-2.1,0-3.9-1.7-4-3.8l-18.7,5.5c0.4,0.6,0.7,1.4,0.7,2.3c0,2.2-1.8,4-4,4c-2.5,0.1-3.9-1.7-4-4.1
		c-4.5,1.5-8.9-0.1-11.4-2.5c-0.7-0.7-0.7-2.1,0-2.8c0.7-0.7,2.1-0.7,2.8,0c1.3,1.3,4.9,2.2,6.8,1.7l41.2-12.2
		C70.6,1018.1,71.9,1018.9,72,1020.1z"/>
</g>
</svg>
