<?xml version="1.0" encoding="utf-8"?>
<!-- Generator: Adobe Illustrator 25.3.1, SVG Export Plug-In . SVG Version: 6.00 Build 0)  -->
<svg version="1.1" id="Layer_1" xmlns:serif="http://www.serif.com/"
	 xmlns="http://www.w3.org/2000/svg" xmlns:xlink="http://www.w3.org/1999/xlink" x="0px" y="0px" viewBox="0 0 496 496"
	 style="enable-background:new 0 0 496 496;" xml:space="preserve">
<path d="M483.8,171.4C449.8,66.6,352.6,0,248.1,0c-25.4,0-51.2,3.9-76.7,12.2C41.2,54.5-30.1,194.4,12.2,324.6
	C46.2,429.4,143.4,496,247.9,496c25.4,0,51.2-3.9,76.7-12.2C454.8,441.5,526.1,301.6,483.8,171.4z M409.3,365.1l-52.2,6.4
	l-43.7-60.9l24.4-75.2l71.1-22.1l38.9,36.4c-0.2,30.7-7.4,61.1-21.7,89.2C421.4,348.2,415.4,356.7,409.3,365.1L409.3,365.1z
	 M409.3,129.7l-10.4,53.1l-70.7,22L264,158.3V84.5l47.4-26.2C350.6,71.3,384.8,96.3,409.3,129.7L409.3,129.7z M184.9,58.4L232,84.5
	v73.8l-64.2,46.5l-70.6-22l-10.1-52.5C111.4,96.9,145,71.7,184.9,58.4L184.9,58.4z M139,371.5L85.9,365
	c-14.4-20.1-37.3-59.6-37.8-115.3l39-36.4l71.1,22.2l24.3,74.3L139,371.5L139,371.5z M187.2,438.5l-22.4-48.1l43.6-61.7H287
	l44.3,61.7l-22.4,48.1C302.7,440.3,251.3,458.9,187.2,438.5z"/>
</svg>
