<?xml version="1.0" encoding="utf-8"?>
<!-- Generator: Adobe Illustrator 25.3.1, SVG Export Plug-In . SVG Version: 6.00 Build 0)  -->
<svg version="1.1" id="Layer_1" xmlns:serif="http://www.serif.com/"
	 xmlns="http://www.w3.org/2000/svg" xmlns:xlink="http://www.w3.org/1999/xlink" x="0px" y="0px" viewBox="0 0 640 320"
	 style="enable-background:new 0 0 640 320;" xml:space="preserve">
<path d="M189.6,214.6c3.5,3.3,15.3,9.4,34.4,9.4s30.9-6.2,34.4-9.4c16-14.8,34.5-22.6,53.5-22.6h16.3c19,0,37.5,7.8,53.5,22.6
	c3.5,3.3,15.3,9.4,34.4,9.4s30.9-6.2,34.4-9.4c14.9-13.7,31.9-21.1,49.4-22.2l-112.8-80.6l18-12.9c3.6-2.6,8.3-3.5,12.6-2.6
	l100.4,21.5c25.9,5.5,51.4-11,57-36.9c5.5-25.9-11-51.4-36.9-57L437.7,2.5c-30.7-6.6-63,0.1-88.6,18.4l-80,57.2
	c-10.4,7.4-19.4,16.4-26.7,26.9l-68.6,98C179.2,206.2,184.6,209.9,189.6,214.6z M624,256h-16c-26,0-45.8-8.4-56.1-17.9
	c-8.9-8.2-19.7-14.1-31.8-14.1h-16.3c-12.1,0-22.9,5.9-31.8,14.1c-10.3,9.5-30,17.9-56.1,17.9s-45.8-8.4-56.1-17.9
	c-8.9-8.2-19.7-14.1-31.8-14.1h-16.3c-12.1,0-22.9,5.9-31.8,14.1c-10.3,9.5-30,17.9-56.1,17.9s-45.8-8.4-56.1-17.9
	c-8.9-8.2-19.7-14.1-31.8-14.1h-16.3c-12.1,0-22.9,5.9-31.8,14.1C77.8,247.6,58,256,32,256H16c-8.8,0-16,7.2-16,16v32
	c0,8.8,7.2,16,16,16h16c38.6,0,72.7-12.2,96-31.8c23.3,19.7,57.4,31.8,96,31.8s72.7-12.2,96-31.8c23.3,19.7,57.4,31.8,96,31.8
	s72.7-12.2,96-31.8c23.3,19.7,57.4,31.8,96,31.8h16c8.8,0,16-7.2,16-16v-32C640,263.2,632.8,256,624,256z M112,160
	c44.2,0,80-35.8,80-80S156.2,0,112,0S32,35.8,32,80S67.8,160,112,160z"/>
</svg>
