<?xml version="1.0" encoding="utf-8"?>
<!-- Generator: Adobe Illustrator 25.3.1, SVG Export Plug-In . SVG Version: 6.00 Build 0)  -->
<svg version="1.1"
	 id="Layer_1" xmlns:cc="http://creativecommons.org/ns#" xmlns:dc="http://purl.org/dc/elements/1.1/" xmlns:inkscape="http://www.inkscape.org/namespaces/inkscape" xmlns:rdf="http://www.w3.org/1999/02/22-rdf-syntax-ns#" xmlns:sodipodi="http://sodipodi.sourceforge.net/DTD/sodipodi-0.dtd" xmlns:svg="http://www.w3.org/2000/svg"
	 xmlns="http://www.w3.org/2000/svg" xmlns:xlink="http://www.w3.org/1999/xlink" x="0px" y="0px" viewBox="0 0 496 496"
	 style="enable-background:new 0 0 496 496;" xml:space="preserve">
<path d="M494.8,228c0-0.1,0.1-0.2,0.1-0.3h-0.1C485,107,388.6,10.6,267.9,0.8V0.7c-0.1,0-0.2,0.1-0.3,0.1c-6.5-0.5-13.1-1-19.8-1
	C111-0.2-0.2,111-0.2,247.8c0,6.7,0.5,13.3,1,19.9v0.1c9.7,120.8,106.2,217.3,227,227h0.1c6.6,0.5,13.2,1,19.9,1
	c136.8,0,248-111.2,248-248C495.8,241.1,495.3,234.6,494.8,228z M219.1,50.1c-1.7,6.2-2.8,12.6-2.8,19.3
	c0,37.7-16.9,79.9-41.9,104.9c-25.1,25-67.2,41.9-104.9,41.9c-6.7,0-13.1,1.1-19.3,2.8C62.8,131.8,131.8,62.8,219.1,50.1z
	 M49.8,274.7c4.2-6.4,11.4-10.5,19.6-10.5c50.3,0,104.8-22,138.8-56s55.9-88.5,56-138.8c0-8.2,4-15.4,10.4-19.6
	c88.8,12,159.2,82.4,171.2,171.2c-4.2,6.4-11.4,10.4-19.6,10.4c-50.4,0-104.8,22-138.8,56s-55.9,88.4-56,138.8
	c0,8.3-4.1,15.5-10.5,19.7C132.2,433.8,61.8,363.4,49.8,274.7z M276.6,445.5c1.7-6.2,2.8-12.6,2.8-19.3c0-37.7,16.9-79.9,41.9-104.9
	c25.1-25.1,67.2-41.9,104.9-41.9c6.7,0,13.1-1.1,19.3-2.8C432.8,363.8,363.8,432.8,276.6,445.5z"/>
</svg>
