<?xml version="1.0" encoding="utf-8"?>
<!-- Generator: Adobe Illustrator 25.3.1, SVG Export Plug-In . SVG Version: 6.00 Build 0)  -->
<svg version="1.1" id="Layer_1" xmlns="http://www.w3.org/2000/svg" xmlns:xlink="http://www.w3.org/1999/xlink" x="0px" y="0px"
	 viewBox="0 0 512 512" style="enable-background:new 0 0 512 512;" xml:space="preserve">
<path d="M413.8,406.4c0,0,0-0.1,0-0.1c-0.2-0.5-0.5-0.9-0.8-1.3c-16.8-25.2-50.9-32.1-76.2-15.2c-6.1,4-11.3,9.2-15.3,15.3
	c-0.3,0.4-0.5,0.8-0.8,1.2v0c-11.3,17.8-11.3,40.6,0,58.4v0c0.2,0.4,0.5,0.9,0.8,1.2c16.8,25.3,50.9,32.1,76.1,15.3
	c6.4-4.2,11.8-9.7,15.9-16.1c0.1-0.2,0.2-0.3,0.3-0.4c0,0,0-0.1,0-0.1C425.1,446.8,425.1,424.1,413.8,406.4L413.8,406.4z
	 M330.1,452.8c-5.1-10.9-5.1-23.6,0-34.5c23.8,9.8,50.5,9.8,74.3,0c5.1,10.9,5.1,23.6,0,34.5C380.6,443.1,353.9,443,330.1,452.8
	L330.1,452.8z M396.1,406.4c-18.6,6.8-39.1,6.8-57.7,0C354.3,390.5,380.1,390.5,396.1,406.4z M338.4,464.6c18.6-6.8,39.1-6.8,57.7,0
	C380.2,480.5,354.3,480.5,338.4,464.6z"/>
<path d="M433.8,300c0.3-0.3,0.6-0.6,0.9-0.9c0,0,0.1-0.1,0.1-0.1c70.4-70.5,78-177.6,16.9-238.7c-29.7-29.7-71-44.2-116.4-40.8
	c-46.3,4-89.7,24.5-122.2,57.7c-0.1,0-0.1,0.1-0.2,0.1c-0.4,0.3-0.7,0.7-1,1.1c-2.4,2.4-4.7,4.9-7,7.4l-0.1,0.1
	c-20.1,22.2-34.9,48.7-43.2,77.5l0,0.1c-14,40.2-19.9,81.8-25,118.5c-4,28.1-7.5,53-13.8,67.7c-2.5-0.9-5.3-0.2-7.2,1.7l-94.5,94.5
	c-2.7,2.7-2.7,7.2,0,9.9c0,0,0,0,0,0L56.3,491c2.7,2.7,7.2,2.7,9.9,0c0,0,0,0,0,0l73.8-73.8l20.7-20.7c0.3-0.3,0.6-0.7,0.9-1.1
	c0.2-0.2,0.3-0.5,0.4-0.8c0.1-0.1,0.2-0.3,0.2-0.4c0.1-0.3,0.2-0.6,0.3-0.9c0-0.1,0.1-0.3,0.1-0.4c0.1-0.4,0.1-0.9,0.1-1.3v0
	c0-0.5,0-0.9-0.1-1.4c0-0.1-0.1-0.2-0.1-0.4s-0.1-0.3-0.2-0.5c14.7-6.3,39.5-9.8,67.7-13.8c36.7-5.2,78.3-11,118.5-25l0.1,0
	c28.8-8.4,55.3-23.2,77.5-43.3C428.7,304.8,431.3,302.4,433.8,300L433.8,300z M336.3,33.4c3.9-0.3,7.9-0.4,11.7-0.4
	c35-0.7,68.7,12.7,93.7,37.2c55.7,55.7,48,153.9-17,219c-0.3,0.3-0.6,0.5-0.9,0.8c-20.4,20.1-46.5,35.5-79.8,47.1
	c-10.7,3-21.7,5-32.9,5.9c-41.2,3.1-78.7-10-105.5-36.8S165.9,242,169,200.8c0.8-11.1,2.8-22.1,5.9-32.8c11.6-33.2,27-59.3,47-79.7
	c0.3-0.3,0.6-0.7,1-1C253,56.3,293.3,37.2,336.3,33.4L336.3,33.4z M120.5,366.2l25.3,25.3L135,402.3L109.7,377L120.5,366.2z
	 M61.2,476.1l-25.3-25.3l63.9-63.9l25.3,25.3L61.2,476.1z M228,361.6c-32.7,4.6-59.2,8.4-75.5,16.8l-18.9-18.9
	c8.4-16.3,12.2-42.8,16.8-75.5c2-13.9,4-28.5,6.6-43.5c9.8,58.8,55.8,104.8,114.6,114.5C256.6,357.6,242,359.7,228,361.6z"/>
<path d="M198.1,137c-9,16.7-15,34.8-17.9,53.5c-0.2,0.7-0.3,1.4-0.3,2.2c-0.6,4.7-1,9.3-1.2,13.9c-0.1,0.7-0.1,1.4,0,2.1
	c-0.6,17.8,2.5,35.5,9.1,52.1c0.1,0.2,0.2,0.5,0.3,0.7c5.7,14,14.1,26.8,24.8,37.5c0,0,0,0.1,0.1,0.1s0.1,0,0.1,0.1
	c23.1,22.6,54.3,35,86.6,34.4c1.5,0,2.9-0.1,4.4-0.1h0.1h0.2c2.7-0.1,5.4-0.2,8.1-0.5s5.5-0.6,8.2-1l0.3,0
	c36.8-5.8,70.8-23.3,96.8-49.9c26.6-26.1,44.1-60,49.9-96.9c0-0.1,0-0.2,0-0.3c0.4-2.7,0.7-5.5,1-8.2s0.4-5.5,0.5-8.3v0
	c1.1-35.6-10.9-67.7-34.3-91.2l0,0l0,0C409.5,52,374.1,40,335.2,43.4c-40,4.1-77.3,22.1-105.3,50.9c-12.3,12.2-22.7,26.2-31,41.4
	C198.5,136.1,198.3,136.6,198.1,137z M234.9,109.3l19.7,19.7l-25.4,25.4l-15.9-15.9C219.4,128,226.7,118.2,234.9,109.3L234.9,109.3z
	 M274,77.7l15.9,15.9L264.5,119l-19.7-19.7C253.8,91.1,263.5,83.8,274,77.7z M348,56.8c11.3,0,22.5,1.5,33.3,4.7L364.8,78
	l-19.7-19.7l1.4-1.4C347,56.9,347.5,56.8,348,56.8L348,56.8z M419.7,82.4l-25.2,25.2l-19.7-19.7l21-21
	C404.4,70.9,412.5,76.2,419.7,82.4L419.7,82.4z M445.1,116.3l-21,21l-19.7-19.7l25.2-25.2C435.9,99.6,441.1,107.6,445.1,116.3
	L445.1,116.3z M441.2,225l-12.8-12.8l24.8-24.8C450.8,200.4,446.8,213.1,441.2,225L441.2,225z M412.7,267.2L393,247.5l25.4-25.4
	l15.9,15.9C428.2,248.5,420.9,258.3,412.7,267.2z M373.6,298.8l-15.9-15.9l25.4-25.4l19.7,19.7C393.8,285.3,384,292.6,373.6,298.8
	L373.6,298.8z M266.3,314.9l16.5-16.5l19.7,19.7l-1.4,1.4C289.4,319.7,277.6,318.2,266.3,314.9L266.3,314.9z M227.9,294l25.2-25.2
	l19.7,19.7l-21,21C243.2,305.5,235.1,300.3,227.9,294L227.9,294z M202.5,260.1l21-21l19.7,19.7L218,284.1
	C211.7,276.9,206.5,268.8,202.5,260.1L202.5,260.1z M333.7,188.2l25.4-25.4l19.7,19.7L353.4,208L333.7,188.2z M343.6,217.9
	l-25.4,25.4l-19.7-19.7l25.4-25.4L343.6,217.9z M323.8,178.3l-19.7-19.7l25.4-25.4l19.7,19.7L323.8,178.3z M313.9,188.2l-25.4,25.4
	l-19.7-19.7l25.4-25.4L313.9,188.2z M278.6,223.6L253.1,249l-19.7-19.7l25.4-25.4L278.6,223.6z M288.5,233.5l19.7,19.7l-25.4,25.4
	L263,258.9L288.5,233.5z M318.1,263.1l19.7,19.7l-25.4,25.4l-19.7-19.7L318.1,263.1z M328,253.2l25.4-25.4l19.8,19.7l-25.4,25.4
	L328,253.2z M363.3,217.9l25.4-25.4l19.7,19.7l-25.4,25.4L363.3,217.9z M398.7,182.5l25.4-25.4l19.7,19.7l-25.4,25.4L398.7,182.5z
	 M388.8,172.6L369,152.9l25.4-25.4l19.8,19.7L388.8,172.6z M359.1,143l-19.7-19.7l25.4-25.4l19.7,19.7L359.1,143z M329.5,113.4
	l-19.7-19.8l25.4-25.4l19.7,19.7L329.5,113.4z M319.6,123.3l-25.4,25.4l-19.8-19.7l25.4-25.4L319.6,123.3z M284.3,158.6L258.8,184
	l-19.7-19.7l25.4-25.4L284.3,158.6z M248.9,193.9l-25.4,25.4l-19.8-19.7l25.4-25.4L248.9,193.9z M192.5,210.9l1.4-1.4l19.7,19.7
	l-16.4,16.4C193.9,234.4,192.3,222.6,192.5,210.9L192.5,210.9z M323,317.5l24.8-24.8l12.8,12.8C348.6,311.2,336,315.2,323,317.5
	L323,317.5z M455.1,165.6l-1.4,1.4L434,147.2l16.5-16.5C453.8,142,455.3,153.8,455.1,165.6L455.1,165.6z M324.6,58.9l-24.8,24.8
	L287,70.9C299,65.2,311.6,61.2,324.6,58.9z M219.3,164.3L194.5,189c2.3-13,6.3-25.6,11.9-37.5L219.3,164.3z"/>
</svg>
