<?xml version="1.0" encoding="utf-8"?>
<!-- Generator: Adobe Illustrator 25.3.1, SVG Export Plug-In . SVG Version: 6.00 Build 0)  -->
<svg version="1.1"
	 id="Layer_1" xmlns:cc="http://creativecommons.org/ns#" xmlns:dc="http://purl.org/dc/elements/1.1/" xmlns:inkscape="http://www.inkscape.org/namespaces/inkscape" xmlns:rdf="http://www.w3.org/1999/02/22-rdf-syntax-ns#" xmlns:sodipodi="http://sodipodi.sourceforge.net/DTD/sodipodi-0.dtd" xmlns:svg="http://www.w3.org/2000/svg"
	 xmlns="http://www.w3.org/2000/svg" xmlns:xlink="http://www.w3.org/1999/xlink" x="0px" y="0px" viewBox="0 0 496 496"
	 style="enable-background:new 0 0 496 496;" xml:space="preserve">
<path d="M248,0C111.2,0,0,111.2,0,248s111.2,248,248,248s248-111.2,248-248S384.8,0,248,0z M394.6,383.6
	c-75.3,12.7-152.6-4.5-215.7-47.8c19.8-23.6,43.5-43.9,70.3-60.3c95,51.4,177.4,40.1,187.1,39.3
	C427.1,340.6,412.8,363.9,394.6,383.6L394.6,383.6z M447.1,265.5c-18.9,2.6-37.9,3.5-56.8,2.3c5.6-68.4-10.3-136.3-45-194.4
	C374.1,89.6,457.2,150,447.1,265.5L447.1,265.5z M291.9,53c48.8,58.9,72.6,134.6,66.7,211c-30.2-5.3-59.6-15.6-87.1-30.5
	c-1.8-65.7-22.6-128.5-59.9-182C223.6,49.3,252.7,44.2,291.9,53L291.9,53z M163.7,66.9C175.4,82,185.6,98,194,114.8
	c-62,29.3-112.9,77-145.9,136.2C46.8,163.7,100.1,96.6,163.7,66.9L163.7,66.9z M57.1,307.7c26.6-71.8,80.2-130.4,149.4-163.5
	c10.5,28.8,16.3,59.4,17.1,90.7c-56,34.4-100,83.8-127.6,142.8C78.7,357.4,65.3,333.7,57.1,307.7z M133.3,411.6
	c7.1-17.6,15.9-34.2,26.1-49.9c33.7,23.3,98.9,59.2,190.8,57.9c-30,17.9-64.8,28.4-102.2,28.4C205.3,448,165.8,434.4,133.3,411.6
	L133.3,411.6z"/>
</svg>
